<?xml version="1.0" encoding="UTF-8"?>
<svg id="Finalisten" xmlns="http://www.w3.org/2000/svg" xmlns:xlink="http://www.w3.org/1999/xlink" version="1.1" viewBox="0 0 240.94 155.91">
  <!-- Generator: Adobe Illustrator 30.4.0, SVG Export Plug-In . SVG Version: 2.1.4 Build 226)  -->
  <defs>
    <style>
      .st0 {
        fill: white;
      }

      .st1, .st2, .st3 {
        fill: white;
      }

      .st2, .st3 {
        stroke: white;
        stroke-linejoin: round;
        stroke-width: .47px;
      }

      .st4 {
        fill: white;
      }

      .st3 {
        stroke-linecap: round;
      }

      .st5 {
        fill: white;
      }

      .st6 {
        fill: white;
      }

      .st7 {
        fill: white;
      }
    </style>
  </defs>
  <g>
    <path class="st4" d="M60.53,49.24c-18.23-2.26-36.17,10.98-37.21,29.84-1.13,20.25,13.44,32.64,19.17,35.18,5.52,2.45,9.05,3.5,15.57,3.75,2.08.08,4.73.1,6.77-.57,1.85-.61,3.11-1.84,4.97-3.12,4.9-3.34,8.9-8.31,9.12-8.94.22-.63,2-2.7.11-3.24-1.25-.35-2.12,1.58-3.36,2.69-1.59,1.41-3.93,3.54-5.62,4.58-1.7,1.05-8.82,3.04-11.33-.15,0,0,.76-.23,2.42-.74,2.18-.67,4.88-1.66,5.95-2.23,1.92-1.02,2.17-1.55,2.23-2.35.06-.79-1.88-1.16-3.25-.86-.9.2-5.95,1.74-6.65,1.91-.83.2-5.35.48-6.41,1.13-2.62,1.62-3.76.8-5.48.49-6.43-1.21-12.83-4.74-17.19-15.52-2.96-7.32-2.34-14.99.28-21.53,7.89-19.78,29.92-20.33,29.92-20.33Z"/>
    <path class="st6" d="M24.77,64.69c9.31-16.99,30.84-23.11,48.07-13.66,3.65,2,6.8,4.54,9.43,7.45-3.15-5.08-7.62-9.45-13.26-12.54-17.24-9.45-38.76-3.33-48.07,13.66-7.34,13.4-4.89,29.55,4.92,40.42-6.49-10.45-7.36-23.89-1.09-35.32Z"/>
    <path class="st0" d="M30.97,75.23s5.82-23.73,32.2-23.76c9.07-.01,16.4,6.5,16.4,6.5,0,0-3.3-1.95-9.63-2.96-6.56-1.04-11.1-.31-16.46,1.25-14.65,4.27-20.28,14.51-22.5,18.97Z"/>
    <g>
      <g>
        <path class="st1" d="M76.88,65.72c-.06,0-.12-.04-.13-.09-.01-.06,0-.11.05-.13.05-.02.08-.05.09-.1.04-.12.02-.43-.49-1.21-.02-.03-.02-.08,0-.11.35-.7.37-1.3.06-1.79-.41-.66-1.42-1.09-2.57-1.09-.74,0-1.4.19-1.76.51-.02.02-.05.03-.07.03s-.05-.01-.08-.03c-.04-.04-.06-.1-.03-.15.35-.59,1.25-.97,1.67-1.08.23-.06.42-.09.64-.09s.46.03.78.09c.38.07,1.58.51,2.11,1.52.36.69.33,1.51-.08,2.42,0,.08.08.26.16.43.12.27.23.53.11.72-.08.12-.23.17-.45.17h0Z"/>
        <path class="st1" d="M74.25,60.48c.21,0,.45.03.76.09.62.12,3.15,1.12,1.94,3.77-.02.45.76,1.26-.08,1.26-.01,0-.02,0-.03,0,.44-.19-.06-1.04-.34-1.49,1.02-2.06-.91-3.05-2.62-3.05-.73,0-1.43.18-1.84.53.33-.55,1.19-.91,1.6-1.03.21-.06.39-.09.61-.09M74.25,60.25h0c-.23,0-.44.03-.67.1-.44.12-1.37.52-1.74,1.13-.06.1-.04.22.05.3.04.04.1.05.15.05s.11-.02.15-.06c.35-.3.98-.48,1.68-.48,1.11,0,2.09.41,2.48,1.04.28.46.26,1.02-.06,1.68-.04.07-.03.16.01.23.51.8.49,1.06.47,1.12-.1.04-.16.17-.13.28s.12.2.23.2c.1,0,.4,0,.55-.23.16-.24.03-.54-.1-.83-.06-.14-.13-.29-.14-.39.41-.93.43-1.76.05-2.47-.55-1.06-1.77-1.5-2.19-1.58-.34-.06-.58-.09-.81-.09h0Z"/>
      </g>
      <path class="st3" d="M73.3,67.93c-1.97-.92-3,.9-4.35,1.03-1.95.19-3.97.41-5.49,1.26-1.02,2.52-1.85,5.24-2.52,8.12.03-3.14.92-6.4,1.6-9.27,3-1.07,5.38-2.78,9.38-2.86.48.47,1.33,1.19,1.37,1.72Z"/>
      <path class="st2" d="M76.1,66.72c.27.1-.1.5-.11.69-.46-.04-.83-.16-1.15-.34-.38.27-.62.68-.8,1.14-.5-.15-.72-.58-1.03-.91.08-.42.42-.57.68-.8.81-.01,2.02,1.25,2.4.23Z"/>
      <path class="st3" d="M75.23,77.1c.3-1.5.79-2.79.69-4.69.5.91,1.02,1.8,1.49,2.74,2-1.5,3.77-3.24,5.38-5.15-.79,1.79-3.16,5.36-4.92,7.66-.17.23-.76,1.03-.8,1.03-.71.1-1.29-1.44-1.83-1.6Z"/>
      <path class="st3" d="M68.39,86.6c.79.47,1.77,1.68,2.63,2.07.09.54-.58.95-1.03,1.37-1.29,1.25-3.06,2.62-4.91,3.32-.9,1.41-2.67,2.1-4.23,3.09-3.03,1.91-5.47,3.57-7.89,6.27-.14.16-.05,0,0-.11,2.22-4.34,6.32-6.8,9.83-9.84.15-.31.28-.63.24-1.14,2.05-1.42,4.34-2.6,5.37-5.03Z"/>
      <path class="st2" d="M71.84,66.29c1.56,1.25,3.76,2.9,4.21,5.44.64,3.5-1.56,6.92-1.94,9.95,3.26.81,5.77,2.3,7.66,4.92.47.64,1.49,1.87,1.49,2.63,0,1.54-3.46,3.8-4.46,4.57-1.85,1.43-3.47,2.5-5.03,3.89,1.58-1.72,3.67-3.79,5.72-5.83.59-.6,1.75-1.38,1.83-2.06.2-1.69-2.79-3.86-3.77-4.58-1.79-1.31-3.45-2.14-5.61-2.74.57-3.22,2.81-7.39,2.75-11.09-.04-2.42-1.48-3.61-2.84-5.1Z"/>
    </g>
  </g>
  <g>
    <path class="st7" d="M107.79,74.13c-.61.84-1.42,1.3-2.95,1.3h-2.19v-9.62h2.03c1.51,0,2.48.38,3.28,1.59.52.8.78,1.9.78,3.23,0,1.56-.37,2.71-.95,3.5ZM106.73,67.74c-.48-.67-.99-.85-1.84-.85h-.99v7.44h.97c1,0,1.65-.29,2.05-1.08.32-.64.47-1.51.47-2.46,0-1.34-.13-2.33-.65-3.06Z"/>
    <path class="st7" d="M113.28,69.57c-.11-.04-.2-.07-.33-.07-.71,0-1.32.66-1.32,1.42v4.51h-1.17v-5.14c0-.85-.09-1.31-.24-1.75l1.13-.32c.11.27.22.73.22,1.07v.13c.51-.81,1.05-1.21,1.73-1.21.15,0,.29.03.39.07l-.41,1.28Z"/>
    <path class="st7" d="M114.85,75.63c-.52,0-.9-.47-.9-1.05s.38-1.05.9-1.05.9.47.9,1.05-.38,1.05-.9,1.05Z"/>
    <path class="st7" d="M127.25,75.43v-5.01c0-.8-.23-1.08-.76-1.08-.58,0-1,.42-1.49.95v5.14h-1.14v-4.98c0-.78-.2-1.08-.79-1.08-.43,0-.91.24-1.46.81v5.25h-1.16v-5.14c0-.99-.05-1.26-.23-1.75l1.09-.29c.13.24.22.59.22.98.55-.63,1.2-.99,1.79-.99s1.2.35,1.51,1.1c.64-.74,1.3-1.1,1.95-1.1.99,0,1.63.68,1.63,1.97v5.22h-1.16Z"/>
    <path class="st7" d="M131.39,72.21v.17c0,.6.08,1.06.27,1.4.33.56.85.82,1.46.82s1.11-.22,1.56-.67l.44.77c-.62.6-1.37.89-2.2.89-1.77,0-2.85-1.41-2.85-3.7,0-1.21.22-2,.76-2.71.51-.66,1.13-.96,1.92-.96.71,0,1.28.25,1.73.75.56.63.76,1.41.78,3.02v.22h-3.88ZM133.65,69.68c-.2-.28-.51-.49-.92-.49-.89,0-1.33.8-1.33,2.07h2.64c0-.67-.14-1.23-.39-1.58Z"/>
    <path class="st7" d="M140.87,75.43c-.06-.21-.08-.31-.11-.66-.44.52-.97.77-1.64.77-1.63,0-2.58-1.34-2.58-3.55,0-1.51.47-2.67,1.33-3.28.39-.28.79-.4,1.25-.4.61,0,1.12.24,1.55.81,0-.2-.03-.75-.03-1.23v-2.72l1.17.21v7.71c0,1.13.04,1.91.18,2.35h-1.12ZM140.63,70c-.33-.43-.75-.66-1.35-.66-.48,0-.86.27-1.11.71-.24.46-.33,1.02-.33,1.93,0,1.35.15,1.73.5,2.12.22.25.51.36.94.36.67,0,1.13-.39,1.35-.81v-3.66Z"/>
    <path class="st7" d="M144.6,75.63c-.52,0-.9-.47-.9-1.05s.38-1.05.9-1.05.9.47.9,1.05-.38,1.05-.9,1.05Z"/>
    <path class="st7" d="M155.83,75.43l-.85-2.72h-3.34l-.84,2.72h-1.4l3.16-9.63h1.67l3.1,9.63h-1.51ZM153.38,67.14h-.08c-.14.54-1.16,3.99-1.33,4.45h2.71c-.17-.45-1.17-3.9-1.3-4.45Z"/>
    <path class="st7" d="M161.76,69.57c-.13-.04-.22-.07-.36-.07-.78,0-1.45.66-1.45,1.42v4.51h-1.28v-5.14c0-.85-.1-1.31-.27-1.75l1.24-.32c.12.27.24.73.24,1.07v.13c.56-.81,1.16-1.21,1.9-1.21.17,0,.32.03.43.07l-.45,1.28Z"/>
    <path class="st7" d="M167.53,75.43v-4.72c0-.63-.06-.85-.22-1.07-.14-.18-.39-.28-.71-.28-.5,0-1.26.39-1.73.89v5.18h-1.27v-5.21c0-.84-.07-1.16-.27-1.66l1.21-.33c.17.33.24.64.24,1.07.41-.34.61-.52.91-.68.41-.24.87-.35,1.3-.35.74,0,1.4.39,1.65.99.11.25.17.56.17.88v5.29h-1.27Z"/>
    <path class="st7" d="M175.38,75.43c-.07-.21-.08-.31-.13-.66-.49.52-1.06.77-1.8.77-1.79,0-2.83-1.34-2.83-3.55,0-1.51.52-2.67,1.47-3.28.43-.28.87-.4,1.37-.4.67,0,1.23.24,1.7.81,0-.2-.03-.75-.03-1.23v-2.72l1.28.21v7.71c0,1.13.04,1.91.2,2.35h-1.23ZM175.12,70c-.36-.43-.82-.66-1.48-.66-.53,0-.95.27-1.21.71-.27.46-.36,1.02-.36,1.93,0,1.35.17,1.73.54,2.12.24.25.56.36,1.03.36.74,0,1.24-.39,1.48-.81v-3.66Z"/>
    <path class="st5" d="M106.94,98.71h-2.07l-3.46-9.38,2.55-.32,1.38,4.3c.2.63.48,1.67.61,2.29.07-.56.28-1.47.58-2.42l1.28-4h2.61l-3.48,9.53Z"/>
    <path class="st5" d="M118.11,97.59c-.73.82-1.68,1.32-3.15,1.32-2.59,0-4.28-1.94-4.28-4.93s1.71-4.99,4.28-4.99c1.36,0,2.42.47,3.24,1.43.76.89,1.1,1.94,1.1,3.48,0,1.64-.37,2.75-1.19,3.69ZM116.08,91.34c-.24-.32-.63-.5-1.08-.5-.6,0-1.08.37-1.28.97-.17.5-.26,1.17-.26,2.12,0,1.1.11,1.92.32,2.4.22.52.78.78,1.27.78,1.08,0,1.55-.97,1.55-3.22,0-1.29-.17-2.12-.5-2.55Z"/>
    <path class="st5" d="M126.17,98.71v-6.2c0-1.08-.19-1.4-.84-1.4-.5,0-1.15.33-1.73.86v6.74h-2.49v-6.91c0-.82-.11-1.6-.34-2.23l2.22-.63c.22.39.35.8.35,1.19.37-.26.69-.48,1.1-.71.5-.26,1.15-.41,1.71-.41,1.06,0,1.99.56,2.29,1.38.13.35.19.76.19,1.36v6.96h-2.46Z"/>
    <path class="st5" d="M140.97,98.71c-.07-.15-.11-.3-.15-.56-.61.54-1.34.8-2.2.8-2.42,0-3.95-1.88-3.95-4.84s1.66-5.03,4.08-5.03c.69,0,1.23.17,1.69.54-.04-.2-.07-.86-.07-1.41v-3.28l2.48.39v9.9c0,2.35.19,3.11.35,3.48h-2.23ZM140.41,91.69c-.47-.41-.91-.61-1.36-.61-1.12,0-1.6.93-1.6,3.05s.43,2.72,1.73,2.72c.47,0,.99-.32,1.23-.61v-4.54Z"/>
    <path class="st5" d="M147.41,94.72v.07c0,1.47.73,2.31,2.01,2.31.86,0,1.66-.32,2.42-.95l.97,1.49c-1.1.89-2.25,1.32-3.59,1.32-2.74,0-4.5-1.94-4.5-4.93,0-1.71.35-2.85,1.19-3.78.78-.88,1.73-1.29,3-1.29,1.1,0,2.14.37,2.75,1.01.87.89,1.27,2.18,1.27,4.17v.58h-5.51ZM150.33,92.79c0-.71-.08-1.08-.3-1.43-.24-.37-.6-.56-1.1-.56-.95,0-1.49.75-1.49,2.07v.04h2.89v-.11Z"/>
    <path class="st5" d="M159.73,98.71v-6.2c0-1.08-.19-1.4-.84-1.4-.5,0-1.15.33-1.73.86v6.74h-2.49v-6.91c0-.82-.11-1.6-.33-2.23l2.21-.63c.22.39.35.8.35,1.19.37-.26.69-.48,1.1-.71.5-.26,1.15-.41,1.71-.41,1.06,0,1.99.56,2.29,1.38.13.35.19.76.19,1.36v6.96h-2.46Z"/>
    <path class="st5" d="M176.95,96.77c-.78,1.06-1.94,1.77-3.15,1.86-.48.04-1.1.07-1.86.07h-3.15v-12.94h2.61c.75,0,1.73.04,2.25.07,1.1.09,2.05.5,2.83,1.28,1.19,1.17,1.77,2.83,1.77,5.16,0,1.77-.43,3.31-1.3,4.49ZM174.68,88.9c-.43-.71-1.02-1.08-2.05-1.08h-1.19v8.77h1.4c1.71,0,2.5-1.32,2.5-4.06,0-1.51-.13-2.77-.65-3.63Z"/>
    <path class="st5" d="M184.97,91.35c-.24-.13-.45-.19-.73-.19-.56,0-1.06.26-1.53.8v6.74h-2.49v-6.37c0-1.29-.15-2.25-.35-2.79l2.23-.6c.22.39.35.82.39,1.36.54-.73,1.3-1.36,2.23-1.36.37,0,.54.04.93.21l-.69,2.2Z"/>
    <path class="st5" d="M188.03,88.1c-.84,0-1.53-.69-1.53-1.54s.71-1.55,1.56-1.55,1.51.69,1.51,1.55-.69,1.54-1.54,1.54ZM186.78,98.71v-9.36l2.49-.39v9.75h-2.49Z"/>
    <path class="st5" d="M193.78,94.72v.07c0,1.47.73,2.31,2.01,2.31.86,0,1.66-.32,2.42-.95l.97,1.49c-1.1.89-2.25,1.32-3.59,1.32-2.74,0-4.5-1.94-4.5-4.93,0-1.71.35-2.85,1.19-3.78.78-.88,1.73-1.29,3-1.29,1.1,0,2.14.37,2.75,1.01.87.89,1.27,2.18,1.27,4.17v.58h-5.51ZM196.7,92.79c0-.71-.08-1.08-.3-1.43-.24-.37-.6-.56-1.1-.56-.95,0-1.49.75-1.49,2.07v.04h2.89v-.11Z"/>
    <path class="st5" d="M204.17,99.01c-1.17,0-2.46-.37-3.85-1.1l.89-1.82c.76.47,2.08,1.08,3.16,1.08.71,0,1.27-.47,1.27-1.08,0-.65-.47-.99-1.47-1.17l-1.12-.2c-.63-.11-1.41-.56-1.75-.97-.33-.41-.54-1.1-.54-1.71,0-1.86,1.47-3.11,3.69-3.11,1.53,0,2.53.47,3.41.89l-.82,1.68c-.95-.48-1.64-.69-2.34-.69s-1.21.37-1.21.93c0,.48.32.74,1.19.97l1.15.3c1.17.3,1.56.65,1.9,1.08.35.45.52.99.52,1.62,0,1.97-1.64,3.31-4.08,3.31Z"/>
    <path class="st5" d="M215.96,98.34c-.67.39-1.42.6-2.33.6-2.62,0-4.15-1.82-4.15-4.91,0-2.2.84-3.65,1.95-4.41.63-.43,1.56-.71,2.36-.71.63,0,1.32.15,1.84.43.35.19.52.32.93.67l-1.21,1.64c-.5-.46-1.04-.74-1.51-.74-1.12,0-1.62.97-1.62,3.2,0,1.25.17,1.99.48,2.4.26.33.69.54,1.12.54.58,0,1.1-.24,1.71-.78l.15-.13,1.13,1.51c-.37.37-.54.5-.87.71Z"/>
    <path class="st5" d="M223.75,98.71v-6.4c0-.95-.26-1.3-.97-1.3-.61,0-1.41.37-1.97.88v6.83h-2.53v-11.02c0-.89-.08-1.79-.19-2.18l2.55-.6c.11.52.17,1.41.17,2.33v1.9c0,.3-.04.69-.04.8.65-.61,1.73-1.02,2.7-1.02,1.21,0,2.18.52,2.48,1.36.19.54.24.86.24,1.77v6.66h-2.44Z"/>
  </g>
</svg>